<svg viewBox="0 0 960 720" fill="none" stroke-linecap="square" stroke-miterlimit="10" xmlns="http://www.w3.org/2000/svg"><clipPath id="a"><path d="M0 0h960v720H0V0z"/></clipPath><g clip-path="url(#a)"><path d="M0 0h960v720H0z"/><path fill="#fff" d="M129.89 360c0-189.595 156.75-343.291 350.11-343.291 92.855 0 181.907 36.168 247.565 100.547C793.224 181.636 830.11 268.953 830.11 360c0 189.595-156.75 343.291-350.11 343.291S129.89 549.595 129.89 360z" fill-rule="evenodd"/><path stroke="#000" stroke-width="24" stroke-linejoin="round" stroke-linecap="butt" d="M129.89 360c0-189.595 156.75-343.291 350.11-343.291 92.855 0 181.907 36.168 247.565 100.547C793.224 181.636 830.11 268.953 830.11 360c0 189.595-156.75 343.291-350.11 343.291S129.89 549.595 129.89 360z"/></g></svg>