<svg viewBox="0 0 960 720" fill="none" stroke-linecap="square" stroke-miterlimit="10" xmlns="http://www.w3.org/2000/svg"><clipPath id="a"><path d="M0 0h960v720H0V0z"/></clipPath><g clip-path="url(#a)"><path d="M0 0h960v720H0z"/><path fill="#000" d="M129.89 360c0-189.595 156.75-343.291 350.11-343.291 92.855 0 181.907 36.168 247.565 100.547C793.224 181.636 830.11 268.953 830.11 360c0 189.595-156.75 343.291-350.11 343.291S129.89 549.595 129.89 360z" fill-rule="evenodd"/><path fill="#fff" d="M200.598 360c0-151.3 125.093-273.953 279.402-273.953 74.102 0 145.169 28.863 197.567 80.24 52.398 51.375 81.835 121.056 81.835 193.713 0 151.3-125.093 273.953-279.402 273.953-154.31 0-279.402-122.653-279.402-273.953z" fill-rule="evenodd"/></g></svg>