<svg viewBox="0 0 960 720" fill="none" stroke-linecap="square" stroke-miterlimit="10" xmlns="http://www.w3.org/2000/svg"><clipPath id="a"><path d="M0 0h960v720H0V0z"/></clipPath><g clip-path="url(#a)"><path d="M0 0h960v720H0z"/><defs><linearGradient id="b" gradientUnits="userSpaceOnUse" gradientTransform="scale(26.20277)" x1="5.713" y1=".638" x2="5.713" y2="26.84"><stop offset="0" stop-color="#4d4d4d"/><stop offset="1"/></linearGradient></defs><path fill="url(#b)" d="M149.693 360c0-189.595 156.75-343.291 350.11-343.291 92.855 0 181.907 36.168 247.565 100.547C813.027 181.636 849.913 268.953 849.913 360c0 189.595-156.75 343.291-350.11 343.291S149.693 549.595 149.693 360z" fill-rule="evenodd"/><path stroke="#fff" stroke-width="8" stroke-linejoin="round" stroke-linecap="butt" d="M149.693 360c0-189.595 156.75-343.291 350.11-343.291 92.855 0 181.907 36.168 247.565 100.547C813.027 181.636 849.913 268.953 849.913 360c0 189.595-156.75 343.291-350.11 343.291S149.693 549.595 149.693 360z"/></g></svg>