<svg viewBox="0 0 698.677 687.528" fill="none" stroke-linecap="square" stroke-miterlimit="10" xmlns="http://www.w3.org/2000/svg"><clipPath id="a"><path d="M0 0h698.677v687.528H0V0z"/></clipPath><g clip-path="url(#a)"><path d="M0 0h698.677v687.528H0z"/><path fill="#000" d="M-2.021 343.291C-2.021 153.697 154.729 0 348.089 0c92.855 0 181.907 36.168 247.566 100.548 65.658 64.38 102.544 151.697 102.544 242.743 0 189.595-156.75 343.292-350.11 343.292S-2.02 532.886-2.02 343.29z" fill-rule="evenodd"/><path fill="#fff" d="M68.688 343.29c0-151.3 125.092-273.953 279.401-273.953 74.102 0 145.169 28.863 197.567 80.24 52.398 51.375 81.835 121.056 81.835 193.713 0 151.3-125.093 273.953-279.402 273.953-154.309 0-279.401-122.653-279.401-273.953z" fill-rule="evenodd"/><path d="M254.625 178.661h186.929v329.26h-186.93z"/><path fill="#000" d="M337.968 443.661v-80.859l-73.562-110.016h30.734l37.625 57.547q10.407 16.14 19.39 32.297 8.595-14.984 20.845-33.734l36.968-56.11h29.438l-76.172 110.016v80.86h-25.266z"/></g></svg>