<svg version="1.1" viewBox="0.0 0.0 698.6771653543307 687.5275590551181" fill="none" stroke="none" stroke-linecap="square" stroke-miterlimit="10" xmlns:xlink="http://www.w3.org/1999/xlink" xmlns="http://www.w3.org/2000/svg"><clipPath id="p.0"><path d="m0 0l698.6772 0l0 687.5276l-698.6772 0l0 -687.5276z" clip-rule="nonzero"/></clipPath><g clip-path="url(#p.0)"><path fill="#000000" fill-opacity="0.0" d="m0 0l698.6772 0l0 687.5276l-698.6772 0z" fill-rule="evenodd"/><path fill="#000000" d="m-2.0209973 343.29135l0 0c0 -189.59459 156.7497 -343.29135 350.11023 -343.29135l0 0c92.85501 0 181.90692 36.16809 247.5653 100.54771c65.65845 64.379616 102.54492 151.69711 102.54492 242.74365l0 0c0 189.59457 -156.7497 343.29135 -350.11023 343.29135l0 0c-193.36053 0 -350.11023 -153.69678 -350.11023 -343.29135z" fill-rule="evenodd"/><path fill="#ffffff" d="m68.68767 343.29004l0 0c0 -151.29994 125.09235 -273.95276 279.40155 -273.95276l0 0c74.1019 0 145.1688 28.862793 197.56677 80.2389c52.39795 51.376114 81.83478 121.05707 81.83478 193.71387l0 0c0 151.29993 -125.092316 273.95276 -279.40155 273.95276l0 0c-154.30922 0 -279.40155 -122.65283 -279.40155 -273.95276z" fill-rule="evenodd"/><path fill="#000000" fill-opacity="0.0" d="m147.49606 149.92126l403.68503 0l0 396.97638l-403.68503 0z" fill-rule="evenodd"/><path fill="#000000" d="m214.55522 182.36255l123.281235 0q41.6875 0 63.5625 6.390625q29.40625 8.65625 50.359375 30.765625q20.96875 22.09375 31.90625 54.109375q10.9375 32.015625 10.9375 78.953125q0 41.234375 -10.25 71.09375q-12.53125 36.453125 -35.78125 59.015625q-17.546875 17.078125 -47.390625 26.65625q-22.328125 7.0625 -59.703125 7.0625l-126.92186 0l0 -334.04688zm67.45311 56.515625l0 221.25l50.359375 0q28.25 0 40.78125 -3.1875q16.40625 -4.109375 27.21875 -13.90625q10.828125 -9.796875 17.65625 -32.234375q6.84375 -22.453125 6.84375 -61.1875q0 -38.734375 -6.84375 -59.46875q-6.828125 -20.734375 -19.140625 -32.34375q-12.296875 -11.625 -31.203125 -15.734375q-14.125 -3.1875 -55.375 -3.1875l-30.296875 0z" fill-rule="nonzero"/></g></svg>