<?xml version="1.0" standalone="yes"?>

<svg version="1.1" viewBox="0.0 0.0 960.0 720.0" fill="none" stroke="none" stroke-linecap="square" stroke-miterlimit="10" xmlns="http://www.w3.org/2000/svg" xmlns:xlink="http://www.w3.org/1999/xlink"><clipPath id="p.0"><path d="m0 0l960.0 0l0 720.0l-960.0 0l0 -720.0z" clip-rule="nonzero"></path></clipPath><g clip-path="url(#p.0)"><path fill="#000000" fill-opacity="0.0" d="m0 0l960.0 0l0 720.0l-960.0 0z" fill-rule="evenodd"></path><path fill="#000000" d="m129.88977 360.0l0 0c0 -189.59457 156.7497 -343.29135 350.11023 -343.29135l0 0c92.85498 0 181.90692 36.16809 247.5653 100.5477c65.65845 64.37962 102.54492 151.69713 102.54492 242.74364l0 0c0 189.59454 -156.7497 343.29132 -350.11023 343.29132l0 0c-193.36053 0 -350.11023 -153.69678 -350.11023 -343.29132z" fill-rule="evenodd"></path><path fill="#ffffff" d="m200.59842 360.0l0 0c0 -151.29993 125.09235 -273.95276 279.40158 -273.95276l0 0c74.10193 0 145.16876 28.8628 197.56677 80.23891c52.39795 51.376114 81.83478 121.05705 81.83478 193.71385l0 0c0 151.29993 -125.09235 273.95276 -279.40155 273.95276l0 0c-154.30923 0 -279.40158 -122.65283 -279.40158 -273.95276z" fill-rule="evenodd"></path></g></svg>

