<svg version="1.1" viewBox="0.0 0.0 698.6771653543307 687.5275590551181" fill="none" stroke="none" stroke-linecap="square" stroke-miterlimit="10" xmlns:xlink="http://www.w3.org/1999/xlink" xmlns="http://www.w3.org/2000/svg"><clipPath id="p.0"><path d="m0 0l698.6772 0l0 687.5276l-698.6772 0l0 -687.5276z" clip-rule="nonzero"/></clipPath><g clip-path="url(#p.0)"><path fill="#000000" fill-opacity="0.0" d="m0 0l698.6772 0l0 687.5276l-698.6772 0z" fill-rule="evenodd"/><path fill="#000000" d="m-2.0209973 343.29135l0 0c0 -189.59459 156.7497 -343.29135 350.11023 -343.29135l0 0c92.85501 0 181.90692 36.16809 247.5653 100.54771c65.65845 64.379616 102.54492 151.69711 102.54492 242.74365l0 0c0 189.59457 -156.7497 343.29135 -350.11023 343.29135l0 0c-193.36053 0 -350.11023 -153.69678 -350.11023 -343.29135z" fill-rule="evenodd"/><path fill="#ffffff" d="m68.68767 343.29004l0 0c0 -151.29994 125.09235 -273.95276 279.40155 -273.95276l0 0c74.1019 0 145.1688 28.862793 197.56677 80.2389c52.39795 51.376114 81.83478 121.05707 81.83478 193.71387l0 0c0 151.29993 -125.092316 273.95276 -279.40155 273.95276l0 0c-154.30922 0 -279.40155 -122.65283 -279.40155 -273.95276z" fill-rule="evenodd"/><path fill="#000000" fill-opacity="0.0" d="m254.62466 178.66142l186.92914 0l0 329.25983l-186.92914 0z" fill-rule="evenodd"/><path fill="#000000" d="m337.9684 443.6614l0 -80.859375l-73.5625 -110.01561l30.734375 0l37.625 57.54686q10.40625 16.140625 19.390625 32.296875q8.59375 -14.984375 20.84375 -33.734375l36.96875 -56.10936l29.4375 0l-76.171875 110.01561l0 80.859375l-25.265625 0z" fill-rule="nonzero"/></g></svg>